<svg version="1.1" x="0px" y="0px" width="292" height="197" viewBox="0 0 292 197" preserveAspectRatio="xMidYMid meet" xmlns="http://www.w3.org/2000/svg" xmlns:xlink="http://www.w3.org/1999/xlink" xmlns:a="http://ns.adobe.com/AdobeSVGViewerExtensions/3.0/" xml:space="preserve"><g transform="translate(20.754679414075 20.997856798892) scale(3.2297424049981 3.2297424049981) rotate(0 36.759002685547 18.568500518799)"><path d="m8.605 18.568 9.961-9.963 9.963 9.963 4.302-4.302L18.566 0 0 18.568l18.566 18.567L28.99 26.709l10.428 10.428h4.52L31.25 24.451h.003l-4.302-4.305-8.385 8.383z" fill="#0047ab"></path><path d="m37.133 18.566-4.304 4.303-4.302-4.303 4.304-4.303z" fill="#2b75b7"></path><path d="m61.897 18.566 1.575 1.576 1.575-1.576-1.575-1.574-1.575 1.574zm3.622 2.707 1.229 1.23 1.229-1.23-1.229-1.229-1.229 1.229zm2.936-7.502-2.238 2.238 2.238 2.238 2.238-2.238-2.238-2.238z" fill="#2b75b7"></path><path d="m62.604 15.508-1.464-1.463-.8.799-.953-.953.799-.801L47.096 0 36.671 10.424 26.246 0h-4.521l7.25 7.25 5.437 5.438 4.302 4.301 8.383-8.383 9.963 9.963-9.963 9.961-9.962-9.963-4.304 4.303 14.266 14.266L62.605 21.63l-3.061-3.061 3.06-3.061zm-6.383-.137 1.266-1.266 1.266 1.266-1.266 1.266-1.266-1.266zm4.125 6.738-1.34 1.34-1.34-1.34 1.34-1.34 1.34 1.34z" fill="#00a86b"></path><path d="m62.053 25.938 2.555 2.557 2.556-2.557-2.556-2.555-2.555 2.555zm9.455-7.479-2.012 2.012 2.012 2.01 2.01-2.01-2.01-2.012zm-5.197-5.576-1.293-1.293-1.294 1.293 1.294 1.295 1.293-1.295z" fill="#00a86b"></path></g>
<g transform="translate(20.750226653024 173.44745427904)  scale(0.48225371864577 0.48225371864577)"><text dominant-baseline="auto" alignment-baseline="auto" font-family="Oqygen" font-size="62px" fill="#0047ab" letter-spacing="0" xml:space="preserve">HORIZON</text></g>
<g transform="translate(157.71852334698 172.50214266054)  scale(0.47439954868358 0.47439954868358)"><text dominant-baseline="auto" alignment-baseline="auto" font-family="Bakung" font-size="62px" fill="#00a86b" letter-spacing="0" xml:space="preserve">SPATIAL</text></g>
</svg>